<svg xmlns="http://www.w3.org/2000/svg" xmlns:xlink="http://www.w3.org/1999/xlink" version="1.1" id="Layer_1" x="0px" y="0px" viewBox="0 0 425.2 340.2" style="enable-background:new 0 0 425.2 340.2;" xml:space="preserve">
<style type="text/css">
	.st0{fill:#C4CED4;}
	.st1{fill:#FFFFFF;}
	.st2{opacity:0.5;fill:#FFFFFF;enable-background:new    ;}
	.st3{fill:#004B88;}
	.st4{fill:#0072BC;}
	.st5{fill:#82BFAB;}
	.st6{fill:#72BF44;}
	.st7{fill:#EE3124;}
	.st8{fill:#F58220;}
	.st9{fill:#03953F;}
	.st10{fill:#FFFFFF;}
	.st11{fill:#FFFFFF;stroke:#FFFFFF;stroke-width:2;stroke-miterlimit:10;}
</style>
<g id="Layer_1_1_">
	<g>
		<g>
			<g>
				<path class="st0" d="M135,170.3l0.2,2.4l1.1,1.3l2.5,7.1l2.4,7.4l3.4,7.6l5.6,9l2.1,3.9l-0.7,5.8l-1.7,3l-1.5-0.8l-0.2,1.9      l1.5,1.3v2.3l3.7,6.9l-1.5,0.4l0.9,3.9l0.7-1.5h2.3l1.2,1.9l-0.2,1.3l2.2-0.2l2.3,0.4l0.6,1.9l1.7,1.5l4.5,1.1l1.5-0.3l2.3-1.9      l1.3-1.1l1.1-0.9h1.9l1.3-0.9l2.4,0.4l1.5,0.2l2.4-0.6l2.2-0.2c0,0,2.4-2.4,2.4-3s1.8-0.1,1.8-0.1l2.4-0.8l3,0.8h3.7l3.6-1.2      l4.9,0.9l2.4,1l3.7,1.1l0.9-2.1h3l3.7,0.1l0.2-2l2.1-1.3l5.5-0.7l7.9-4.1l4.3-2.5l3.2-2.6l4.3-2.8l2.8-4.7l2.3-3.2l4.9-3.8      l5.2-5.6l2.8-4.7l3.2-6.7l3.9-7.5l2.8-3.4l4.9-2.8l2.8-2.8l2.4-7.2l0.9-3.1v-3.9l1.5-3.2l0.4-1.9h-6.7l-0.6-4.7l-0.6-1.9v-2.6      l-1.1-0.8l0.7-16.7l-1.7-4.3l-3.2-6.4l-2.8-11l-3.9-1l-5.2,0.7l-3.4-1l-3.6-1.3l-3.9,0.9l-1.5,1.4l-7.9,3.6l-3,4.3l-5.4,5.1      l-2.4,2.2l-1.7,3.2v1.9l-3.2,2.1l-1.7,2.4l-4.1,1.3l-2.8,7.9l-2.4,2.6h-5.1h-4.3l-4.5-1.7l-3-3.2l-1.9-0.2l-2.6,0.8l-1.9,1.7      l-0.6,3l-1.1,4.5l-4.5,2.4l-1.3,1.9l-2.4,0.9l-0.9,1.7l-4.7,0.7h-3h-1.4l-0.9-3.2l0.6-2.5l2.2-3.9l-2.8-6.9l-3.7-4.5l-2.2-2.1      V169l-2.4,1.1l-2.1,0.4l-2.1,2.4l-4.3,1.7l-2.2-1.1l-4.3,0.4l-5.1-1.9l-1.9-2.6l-1.9-3.6l-3.4-0.2l-1.3,2.8L135,170.3z"/>
				<path class="st1" d="M168.1,240.6l-4.8-1.2l-1.8-1.6l-0.5-1.7l-2-0.3l-2.7,0.2l0.3-1.7l-1-1.5h-1.8l-1.2,2.4l-1.4-5.7l1.4-0.3      l-3.5-6.6v-2l-1.5-1.3l0.3-2.8l1.7,0.9l1.4-2.5l0.7-5.6l-2-3.8l-5.6-9l-3.4-7.6l-2.4-7.5l-2.4-7l-1.2-1.4l-0.2-2.8l1.8-2l1.4-3      l4,0.2l2,3.8l1.8,2.4l4.8,1.8l4.3-0.4l2.2,1.1l4-1.6l2.1-2.5l2.2-0.4l2.1-1v-41.4l3.1,2.8l3.9,4.7l2.9,7.2l-2.3,4l-0.5,2.3      l0.8,2.8l1.4,0.2h2.9l4.4-0.7l0.9-1.6l2.5-0.9l1.4-1.9l4.3-2.3l1.1-4.3l0.6-3.1l2.2-1.9l2.7-0.8l2.1,0.2l3,3.2l4.3,1.6h9.1      l2.2-2.4l2.9-8l4.2-1.3l1.7-2.4l3-1.9l0.1-1.8l1.8-3.3l7.9-7.3l3-4.3l7.9-3.7l1.5-1.5l4.2-1l3.7,1.4l3.2,1l5.2-0.7l4.3,1.1      l2.9,11.3l3.1,6.3l1.7,4.4l-0.7,16.5l1.1,0.7v2.8l0.5,1.8l0.5,4.3h6.9l-0.5,2.4l-1.5,3.2v4l-0.9,3.1l-2.6,7.4l-2.9,2.9l-4.8,2.8      l-2.8,3.3l-3.9,7.4l-3.2,6.7l-2.8,4.7l-5.3,5.7l-4.9,3.8l-2.2,3.1l-2.9,4.8l-4.3,2.8l-3.1,2.6l-4.4,2.5l-8.1,4.1l-5.4,0.7      l-1.8,1.1l-0.2,2.2l-4.2-0.2h-2.7l-1,2.2l-4.2-1.2l-2.5-1L203,231l-3.6,1.1h-3.9l-2.9-0.7l-2.4,0.8h-0.1c0,0-0.6-0.1-1-0.1      c-0.1,0-0.1,0-0.2,0c-0.2,0.7-1.5,2.1-2.6,3.2l-0.1,0.1l-2.4,0.2l-2.4,0.6l-1.6-0.2l-2.3-0.3l-1.3,0.9h-1.7l-4.8,3.9      L168.1,240.6z M163.9,238.6l4.3,1l1.3-0.3l4.7-4h1.9l1.3-1l4.1,0.6l2.3-0.5l2.1-0.2c1-1,2.1-2.2,2.2-2.6c0-0.1,0.1-0.8,1.1-0.8      c0.4,0,0.9,0.1,1.1,0.1l2.4-0.8l3.1,0.8h3.6l3.6-1.2l5,0.9l2.5,1l3.3,1l0.9-2h3.3l3.3,0.1l0.2-1.7l2.5-1.5l5.5-0.7l7.8-4      l4.3-2.5l3.1-2.6l4.3-2.8l2.8-4.6l2.4-3.3l4.9-3.8l5.2-5.6l2.7-4.6l3.2-6.7l3.9-7.5l3-3.6l4.8-2.8l2.7-2.7l2.4-7.1l0.9-3v-4.1      l1.5-3.2l0.2-1.2H283l-0.6-5.1l-0.6-1.9v-2.4l-1.1-0.8l0.8-16.8l-1.6-4.2l-3.2-6.3l-2.8-10.8l-3.6-0.9l-5.3,0.7l-3.5-1.1      l-3.4-1.3l-3.7,0.9l-1.5,1.4l-7.7,3.6l-2.9,4.2l-7.9,7.3l-1.6,3v2l-3.3,2.2l-1.7,2.5l-4.1,1.3l-2.8,7.8l-2.6,2.8h-9.8l-4.7-1.8      l-2.9-3.1l-1.6-0.2l-2.4,0.7l-1.7,1.5l-0.5,2.8l-1.2,4.7l-4.6,2.5l-1.3,1.9l-2.4,0.9l-1,1.7l-4.9,0.8h-3.1l-2.1-0.2l-1.1-3.6      l0.6-2.7l2.1-3.7l-2.7-6.6l-3.7-4.4l-1.4-1.3V169l-2.8,1.3l-1.9,0.3l-2.1,2.4l-4.5,1.8l-2.3-1.2L150,174l-5.3-2l-2-2.7l-1.8-3.4      l-2.8-0.2l-1.3,2.6l-1.5,1.7l0.2,2.1l1.1,1.3l2.5,7.1l2.4,7.4l3.4,7.5l5.6,8.9l2.1,4.1l-0.8,6.1l-1.9,3.4l-1.3-0.6l-0.1,0.9      l1.5,1.3v2.3l4,7.4l-1.6,0.4l0.5,2.2l0.3-0.6h2.9l1.5,2.2l-0.1,0.9l1.6-0.1l2.7,0.4l0.6,2L163.9,238.6z"/>
			</g>
			<g>
				<polyline class="st1" points="281.1,141 279.5,141.3 275.3,138.9 272.8,141.6 269.5,149.7 269.7,151.1 271,152.1 275,155.6       279.8,156.5 280.9,156 282.2,151 283.3,151.1     "/>
				<polygon class="st1" points="279.9,157 274.8,156.1 270.7,152.5 269.2,151.4 269.1,149.6 272.4,141.3 275.2,138.3 279.5,140.8       281,140.5 281.1,141.5 279.4,141.8 275.4,139.6 273.2,141.9 270,149.7 270.1,150.9 271.3,151.7 275.2,155.2 279.7,156       280.5,155.6 281.8,150.6 283.4,150.6 283.3,151.6 282.6,151.5 281.3,156.3     "/>
			</g>
			<g>
				<polygon class="st1" points="245.9,189.7 246,191.9 244,193.5 240.9,193.6 238.3,191 235.5,186.2 235.3,184.3 233.9,182.2       235.8,181.3 238.5,178.9 239.9,176 242.2,174.4 244.1,174.1 244.5,172.7 247.4,171.7 248.9,170.5 250.5,171.3 252.2,172.9       254.4,175.3 256.5,176.8 257.3,177.7 257.1,179.8 255.2,182.8 254.2,183.9 253.9,186 252.9,187.1 250.2,188 247.1,188.9     "/>
				<path class="st1" d="M240.7,194.1l-2.9-2.9l-2.8-5l-0.2-1.8l-1.6-2.4l2.3-1.1l2.6-2.3l1.5-3l2.5-1.7l1.6-0.2l0.4-1.4l3.1-1      l1.7-1.4l2,1l1.6,1.6l2.2,2.4l2,1.5l1.1,1.1l-0.3,2.5l-1.9,3l-0.9,1.1l-0.3,2.1l-1.3,1.3l-2.7,1l-3.1,0.9l-0.9,0.5l0.1,2.1      l-2.3,1.9L240.7,194.1z M238.6,190.7l2.5,2.4l2.7-0.1l1.6-1.4l-0.1-2.2l1.6-0.9l3.1-0.9l2.6-0.9l0.8-0.9l0.3-2l1.1-1.3l1.8-2.8      l0.2-1.7l-0.7-0.7l-2-1.5l-2.3-2.4l-1.6-1.6l-1.3-0.6l-1.5,1.1l-2.7,0.9l-0.4,1.5l-2.1,0.3l-2.1,1.5l-1.5,2.9l-2.8,2.5l-1.4,0.7      l1.1,1.8l0.2,1.8L238.6,190.7z"/>
			</g>
			<polygon class="st1" points="202.6,230.8 200.3,228.1 201.2,226.5 200.5,225.1 197.8,224.9 194.1,224.2 194.8,221.3 196.7,217      199,216.4 198.4,212.1 201.5,211.6 203,210.5 207.8,208 207.2,206.4 206.1,205.9 203.8,206.8 202.6,205.4 200.8,205.5 195.8,207      189.4,204.7 187.5,206.6 188,207.5 185.2,211.2 179.6,213.3 179.5,215.5 175.6,216.6 173.9,219.5 171.2,218.5 169.1,215.9      169.7,212.2 169.4,211.1 165.7,213.2 162.9,216.7 162.3,210.5 158.5,206.8 158,202.2 157.3,199.5 157.6,196.2 154.2,191.5      153.4,192.5 152.3,195.2 148.8,196.7 148.8,198 147.3,200.1 146.5,199.5 147.9,197.7 147.9,196.1 151.6,194.5 152.6,192      154.3,189.8 158.6,195.9 158.3,199.4 158.9,202.1 159.5,206.3 163.2,210 163.6,214.2 165.1,212.4 170,209.7 170.6,212.2      170.1,215.7 171.7,217.7 173.5,218.3 174.9,215.8 178.5,214.7 178.7,212.6 184.6,210.4 186.9,207.5 186.3,206.4 189.1,203.6      195.8,206 200.7,204.6 203.1,204.4 204.1,205.6 206.1,204.8 208,205.8 209,208.5 203.6,211.4 201.8,212.5 199.5,212.9      200.1,217.1 197.4,217.8 195.7,221.6 195.3,223.4 197.9,223.9 201.2,224.2 202.3,226.5 201.5,228 203.4,230.2    "/>
			<polygon class="st1" points="207.6,206.8 207.4,205.8 209.5,205.2 211.1,202.7 218.2,199.2 219.8,195.6 218.6,192.2 222,193.3      225.8,191.1 229.3,194 231.3,193.6 235.4,190.7 238.4,190.5 238.4,191.5 235.8,191.7 231.6,194.5 229,195 225.7,192.3      222.1,194.4 220.2,193.7 220.9,195.7 218.9,200 211.8,203.5 210.1,206    "/>
			<polygon class="st1" points="263.4,199.3 261.8,196.4 257.6,194.3 254.1,193.4 252.8,192.4 250.1,191 252.4,186.8 253.3,187.2      251.4,190.6 253.4,191.6 254.6,192.6 257.9,193.4 262.5,195.7 264.2,198.8    "/>
			<polygon class="st1" points="219.1,193.4 208.4,184 214.7,165.2 214.4,161.3 212.7,161.3 209.7,166.3 208.7,161.5 206.7,160.6      205.6,157.7 204.1,158.9 196.6,156 196.9,153 196.1,151.3 196.4,149.6 194.1,148.7 192.4,144.1 193.3,143.8 194.8,148 197.5,149      197.1,151.2 197.8,152.8 197.6,155.4 203.9,157.8 206,156.1 207.5,159.9 209.5,160.8 210.2,163.7 212.1,160.4 215.3,160.4      215.7,165.3 209.6,183.7 219.7,192.7    "/>
			<polygon class="st1" points="252.2,173.1 251.5,172.4 258.6,164.9 258.6,163.8 259.1,159 257.6,158 254.9,154.6 253.2,154.4      250.3,152.2 247.4,152.5 243.9,151.3 240.1,149.9 239.1,151.5 232.8,152.5 228.9,154.7 224.7,161 222.6,159.8 219.1,161.1      215.6,165.5 214.9,164.8 218.5,160.3 222.7,158.7 224.4,159.7 228.3,153.9 232.5,151.5 238.5,150.6 239.7,148.7 244.2,150.4      247.6,151.5 250.6,151.2 253.6,153.5 255.4,153.7 258.3,157.4 260.1,158.6 259.5,163.8 259.6,165.2    "/>
			<polygon class="st1" points="246.4,151.8 245.6,151.2 250.3,144.8 248.2,142.1 250.2,139.8 250.3,138.5 252,134.9 251.4,132.9      248.6,133.8 244.2,135.6 240.9,139.9 239.9,139.7 238.1,140.4 238.3,141.5 237.5,143.5 239.4,145 240.2,149.3 239.3,149.4      238.6,145.6 236.3,143.8 237.3,141.4 237.1,139.8 239.8,138.7 240.5,138.8 243.6,134.8 248.2,132.9 252,131.7 252.6,133.3      253,135 251.2,138.8 251.2,140.2 249.5,142.1 251.5,144.8    "/>
			<polygon class="st1" points="248.8,133.3 248.3,131.6 244.4,133.2 244.6,131 241.6,131 236.9,132.6 233.3,128.6 228.2,129      227.3,126.7 228.2,126.3 228.9,128 233.7,127.7 237.2,131.5 241.5,130 245.7,130 245.5,131.7 248.8,130.3 249.7,133    "/>
			<polygon class="st1" points="251.1,132.7 249.5,130.1 252.4,130.5 253.7,128 259.3,124.4 260.7,128.5 263.8,127.2 265.8,124.9      267.3,124.9 268.5,123.1 270.2,123.1 273.4,129.6 275.2,129.1 274.9,127.8 275.9,127 274.1,125.5 275.1,122.8 273.8,120.7      280.1,119.8 280.2,120.8 275.4,121.5 276.2,122.6 275.3,125.2 277.4,126.9 276,128.2 276.3,129.8 272.8,130.7 269.6,124 269,124      267.8,125.8 266.3,125.8 264.3,128 260.1,129.7 258.8,125.9 254.4,128.7 253,131.5 251.4,131.3 252,132.3    "/>
			<polygon class="st1" points="259.7,158.9 258.8,158.5 259.7,156.4 262.2,156.4 265.6,153.6 269.2,155.3 275.1,155.1 275.2,156.1      269,156.3 265.8,154.7 262.5,157.4 260.3,157.4    "/>
		</g>
		<circle class="st2" cx="209" cy="175.7" r="22.2"/>
		<g>
			<g>
				<path class="st3" d="M253.2,212.1L233,191.9c3.2-4.7,5-10.2,5-15.9c0.1-15.8-12.7-28.8-28.5-28.9h-0.2      c-15.7,0-28.6,12.8-28.7,28.5c-0.1,7.7,2.9,14.9,8.3,20.4c5.4,5.5,12.6,8.5,20.2,8.6h0.2c5.3,0,10.5-1.5,15-4.3l20.2,20.1      l-0.8-0.8l8.5-8.4L253.2,212.1z M209.7,194.3h-0.2c-5,0-9.6-2-13.1-5.5s-5.4-8.2-5.3-13.2c0.1-10.1,8.4-18.4,18.5-18.4h0.1      c10.2,0.1,18.5,8.5,18.4,18.7C228.2,186.1,219.8,194.3,209.7,194.3z"/>
			</g>
			<path class="st4" d="M246.1,222l2,2.1c0.6,0.6,1.4,0.9,2.4,0.9l0,0c1.5,0,3.3-0.8,4.7-2.2c2.4-2.4,3-5.5,1.4-7.1l-2.7-2.8l0,0     l0,0l0,0l1.3,1.3l-8.5,8.4L246.1,222z"/>
			<polygon class="st5" points="246.1,221.9 245.4,221.3 245.4,221.3    "/>
			<polygon class="st0" points="254,212.9 253.2,212.1 252.2,211.2 243.7,219.6 244.5,220.4 245.4,221.3 246.1,221.9 246.1,222      246.8,222.6 255.3,214.2    "/>
		</g>
		<g>
			<circle class="st6" cx="169.3" cy="192.8" r="3.6"/>
			<path class="st1" d="M169.3,196.9c-2.3,0-4.1-1.8-4.1-4.1s1.8-4.1,4.1-4.1s4.1,1.8,4.1,4.1C173.4,195,171.6,196.9,169.3,196.9z      M169.3,189.7c-1.7,0-3.1,1.4-3.1,3.1c0,1.7,1.4,3.1,3.1,3.1s3.1-1.4,3.1-3.1S171,189.7,169.3,189.7z"/>
		</g>
		<g>
			<circle class="st7" cx="198.7" cy="181.9" r="2.5"/>
			<path class="st1" d="M198.7,184.9c-1.7,0-3-1.3-3-3s1.3-3,3-3s3,1.3,3,3C201.7,183.5,200.3,184.9,198.7,184.9z M198.7,179.8     c-1.1,0-2,0.9-2,2s0.9,2,2,2s2-0.9,2-2C200.7,180.8,199.8,179.8,198.7,179.8z"/>
		</g>
		<g>
			<circle class="st4" cx="209.6" cy="187" r="2.5"/>
			<path class="st1" d="M209.6,190c-1.7,0-3-1.3-3-3s1.3-3,3-3s3,1.3,3,3S211.2,190,209.6,190z M209.6,185c-1.1,0-2,0.9-2,2     s0.9,2,2,2s2-0.9,2-2S210.7,185,209.6,185z"/>
		</g>
		<g>
			<circle class="st6" cx="221.9" cy="174.6" r="2.5"/>
			<path class="st1" d="M221.9,177.6c-1.7,0-3-1.3-3-3s1.3-3,3-3s3,1.3,3,3C225,176.3,223.6,177.6,221.9,177.6z M221.9,172.6     c-1.1,0-2,0.9-2,2s0.9,2,2,2s2-0.9,2-2C224,173.5,223.1,172.6,221.9,172.6z"/>
		</g>
		<g>
			<circle class="st8" cx="208.9" cy="162.9" r="1.9"/>
			<path class="st1" d="M208.9,165.3c-1.3,0-2.4-1.1-2.4-2.4c0-1.3,1.1-2.4,2.4-2.4c1.3,0,2.4,1.1,2.4,2.4     C211.3,164.2,210.2,165.3,208.9,165.3z M208.9,161.5c-0.8,0-1.4,0.6-1.4,1.4c0,0.8,0.6,1.4,1.4,1.4c0.8,0,1.4-0.6,1.4-1.4     C210.3,162.1,209.7,161.5,208.9,161.5z"/>
		</g>
		<g>
			<path class="st3" d="M204.4,167.6c0,1-0.8,1.9-1.9,1.9c-1,0-1.9-0.8-1.9-1.9c0-1,0.8-1.9,1.9-1.9     C203.6,165.7,204.4,166.5,204.4,167.6z"/>
			<path class="st1" d="M202.5,169.9c-1.3,0-2.4-1.1-2.4-2.4c0-1.3,1.1-2.4,2.4-2.4c1.3,0,2.4,1.1,2.4,2.4     C204.9,168.9,203.8,169.9,202.5,169.9z M202.5,166.2c-0.8,0-1.4,0.6-1.4,1.4c0,0.8,0.6,1.4,1.4,1.4c0.8,0,1.4-0.6,1.4-1.4     S203.3,166.2,202.5,166.2z"/>
		</g>
		<g>
			<circle class="st3" cx="219.4" cy="183.8" r="1.9"/>
			<path class="st1" d="M219.4,186.1c-1.3,0-2.4-1.1-2.4-2.4c0-1.3,1.1-2.4,2.4-2.4s2.4,1.1,2.4,2.4     C221.8,185.1,220.7,186.1,219.4,186.1z M219.4,182.4c-0.8,0-1.4,0.6-1.4,1.4c0,0.8,0.6,1.4,1.4,1.4s1.4-0.6,1.4-1.4     C220.8,183,220.2,182.4,219.4,182.4z"/>
		</g>
		<g>
			<circle class="st8" cx="212.6" cy="216.9" r="3.6"/>
			<path class="st1" d="M212.6,221c-2.3,0-4.1-1.8-4.1-4.1s1.8-4.1,4.1-4.1s4.1,1.8,4.1,4.1C216.6,219.2,214.8,221,212.6,221z      M212.6,213.8c-1.7,0-3.1,1.4-3.1,3.1c0,1.7,1.4,3.1,3.1,3.1c1.7,0,3.1-1.4,3.1-3.1C215.7,215.2,214.3,213.8,212.6,213.8z"/>
		</g>
		<g>
			<circle class="st9" cx="209.6" cy="175.7" r="5.1"/>
			<path class="st1" d="M209.6,181.3c-3.1,0-5.6-2.5-5.6-5.6s2.5-5.6,5.6-5.6s5.6,2.5,5.6,5.6C215.2,178.8,212.7,181.3,209.6,181.3z      M209.6,171c-2.6,0-4.7,2.1-4.7,4.7c0,2.6,2.1,4.7,4.7,4.7c2.6,0,4.7-2.1,4.7-4.7C214.2,173.1,212.1,171,209.6,171z"/>
		</g>
		<g>
			<circle class="st8" cx="245.4" cy="141.9" r="3.6"/>
			<path class="st1" d="M245.4,146c-2.3,0-4.1-1.8-4.1-4.1s1.8-4.1,4.1-4.1s4.1,1.8,4.1,4.1S247.7,146,245.4,146z M245.4,138.8     c-1.7,0-3.1,1.4-3.1,3.1s1.4,3.1,3.1,3.1s3.1-1.4,3.1-3.1S247.1,138.8,245.4,138.8z"/>
		</g>
		<g>
			<circle class="st6" cx="255.3" cy="116.7" r="3.6"/>
			<path class="st1" d="M255.3,120.8c-2.3,0-4.1-1.8-4.1-4.1c0-2.3,1.8-4.1,4.1-4.1s4.1,1.8,4.1,4.1S257.6,120.8,255.3,120.8z      M255.3,113.6c-1.7,0-3.1,1.4-3.1,3.1s1.4,3.1,3.1,3.1c1.7,0,3.1-1.4,3.1-3.1S257,113.6,255.3,113.6z"/>
		</g>
		<g>
			<circle class="st7" cx="267.2" cy="170.5" r="3.6"/>
			<path class="st1" d="M267.2,174.6c-2.3,0-4.1-1.8-4.1-4.1s1.8-4.1,4.1-4.1c2.3,0,4.1,1.8,4.1,4.1S269.4,174.6,267.2,174.6z      M267.2,167.4c-1.7,0-3.1,1.4-3.1,3.1c0,1.7,1.4,3.1,3.1,3.1s3.1-1.4,3.1-3.1S268.9,167.4,267.2,167.4z"/>
		</g>
		<g>
			<circle class="st4" cx="166.7" cy="228.6" r="3.6"/>
			<path class="st1" d="M166.7,232.7c-2.3,0-4.1-1.8-4.1-4.1s1.8-4.1,4.1-4.1s4.1,1.8,4.1,4.1C170.8,230.8,168.9,232.7,166.7,232.7z      M166.7,225.4c-1.7,0-3.1,1.4-3.1,3.1c0,1.7,1.4,3.1,3.1,3.1s3.1-1.4,3.1-3.1S168.4,225.4,166.7,225.4z"/>
		</g>
	</g>
</g>
<g id="Layer_2_1_">
	<g>
		
			<ellipse transform="matrix(1.208188e-02 -0.9999 0.9999 1.208188e-02 193.3451 446.5627)" id="hdpoint2" class="st10" cx="322.7" cy="125.4" rx="3.7" ry="3.7"/>
		<circle class="st10" cx="293.4" cy="97.6" r="3.7"/>
		
			<ellipse transform="matrix(1.208193e-02 -0.9999 0.9999 1.208193e-02 152.0883 484.8107)" class="st10" cx="321.4" cy="165.4" rx="3.7" ry="3.7"/>
		<path class="st11" d="M313.7,129c3-1.2,6-2.4,8.9-3.6"/>
		<path class="st10" d="M294.7,97.4l-1.4,1.4c16,18,25.9,41.3,27,66.9h2C321.3,139.6,311,115.8,294.7,97.4z"/>
	</g>
	<g>
		<ellipse transform="matrix(0.7232 -0.6906 0.6906 0.7232 29.7066 196.505)" id="hdpoint1" class="st10" cx="260" cy="61.2" rx="3.7" ry="3.7"/>
		<circle class="st10" cx="219.7" cy="61.8" r="3.7"/>
		
			<ellipse transform="matrix(0.7232 -0.6906 0.6906 0.7232 16.807 223.3698)" class="st10" cx="287.1" cy="90.7" rx="3.7" ry="3.7"/>
		<path class="st11" d="M256.1,70c1.3-2.9,2.6-6,3.9-8.8"/>
		<path class="st10" d="M220.4,60.7v2c24,1.7,47.4,11.4,66.1,29l1.4-1.4C269,72.3,244.9,62.5,220.4,60.7z"/>
	</g>
	<g>
		
			<ellipse transform="matrix(0.7071 -0.7071 0.7071 0.7071 -57.4356 291.021)" id="hdpoint3" class="st10" cx="322.6" cy="214.8" rx="3.7" ry="3.7"/>
		<circle class="st10" cx="321" cy="174.5" r="3.7"/>
		
			<ellipse transform="matrix(0.7071 -0.7071 0.7071 0.7071 -85.5995 278.7941)" class="st10" cx="293.7" cy="242.7" rx="3.7" ry="3.7"/>
		<path class="st11" d="M313.7,211.2c3,1.3,6,2.5,8.9,3.7"/>
		<path class="st10" d="M322.1,175.3h-2c-1.1,24-10.3,47.7-27.4,66.8l1.4,1.4C311.7,224.1,321,199.8,322.1,175.3z"/>
	</g>
	<g>
		<ellipse class="st10" id="hdpoint4" cx="260.4" cy="278.8" rx="3.7" ry="3.7"/>
		<circle class="st10" cx="287.3" cy="248.8" r="3.7"/>
		
			<ellipse transform="matrix(0.9999 -1.638230e-02 1.638230e-02 0.9999 -4.5363 3.6466)" class="st10" cx="220.3" cy="278.7" rx="3.7" ry="3.7"/>
		<path class="st11" d="M256.6,270c1.2,3,2.6,6,3.8,8.8"/>
		<path class="st10" d="M287.6,250.1l-1.4-1.4c-17.5,16.5-40.6,27.1-66.1,28.9v2C246.2,277.9,269.7,266.9,287.6,250.1z"/>
	</g>
</g>
<g id="Layer_2_2_">
	<g>
		<ellipse class="st10" cx="102.2" id="hdpoint5" cy="214" rx="3.7" ry="3.7"/>
		<circle class="st10" cx="131.3" cy="242" r="3.7"/>
		<ellipse class="st10" cx="103.8" cy="173.9" rx="3.7" ry="3.7"/>
		<path class="st11" d="M111.2,210.5c-3,1.1-6,2.4-9,3.5"/>
		<path class="st10" d="M130,242.2l1.4-1.4c-15.8-18.1-25.6-41.5-26.5-67.1h-2C103.7,199.8,113.8,223.7,130,242.2z"/>
	</g>
	<g>
		<ellipse class="st10" cx="102.9" id="hdpoint1" cy="124.5" rx="3.7" ry="3.7"/>
		<circle class="st10" cx="104.2" cy="164.8" r="3.7"/>
		<ellipse class="st10" cx="132" cy="96.9" rx="3.7" ry="3.7"/>
		<path class="st11" d="M111.8,128.3c-3-1.3-6-2.5-8.9-3.7"/>
		<path class="st10" d="M103.1,164.1h2c1.3-24,10.6-47.6,27.9-66.6l-1.4-1.4C113.9,115.4,104.5,139.6,103.1,164.1z"/>
	</g>
</g>
</svg>